<svg xmlns="http://www.w3.org/2000/svg" width="520" height="160" viewBox="0 0 520 160" fill="none"><rect width="520" height="160" rx="34" fill="white"/><g transform="translate(34 18)"><circle cx="58" cy="58" r="42" fill="#080A12"/><path d="M23 26 38 10 50 34Z" fill="#080A12"/><path d="M93 26 78 10 66 34Z" fill="#080A12"/><path d="M18 58H98" stroke="#2B2F3A" stroke-width="18" stroke-linecap="round"/><circle cx="43" cy="55" r="8" fill="white"/><circle cx="73" cy="55" r="8" fill="white"/><path d="M54 72q4 5 8 0" stroke="white" stroke-width="4" stroke-linecap="round"/><path d="M13 63q-18 0-30-8M13 75q-17 3-29 12M103 63q18 0 30-8M103 75q17 3 29 12" stroke="#080A12" stroke-width="5" stroke-linecap="round"/></g><text x="170" y="92" font-family="Arial, sans-serif" font-size="58" font-weight="900" fill="#080A12">Ninja</text><text x="340" y="92" font-family="Arial, sans-serif" font-size="58" font-weight="900" fill="#5B45F5">Pet</text></svg>